<mxfile host="app.diagrams.net" modified="2022-03-01T03:30:05.486Z" agent="5.0 (Windows NT 10.0; Win64; x64) AppleWebKit/537.36 (KHTML, like Gecko) Chrome/98.0.4758.102 Safari/537.36" etag="straSyuCyEmyXYBjH8dC" version="16.6.4" type="github">
  <diagram id="FVVDr3EWAPTUyRkwVeIB" name="园区平台">
    <mxGraphModel dx="1093" dy="576" grid="1" gridSize="10" guides="1" tooltips="1" connect="1" arrows="1" fold="1" page="1" pageScale="1" pageWidth="2339" pageHeight="3300" math="0" shadow="0">
      <root>
        <mxCell id="0" />
        <mxCell id="1" parent="0" />
        <mxCell id="XGPAb-1Tz1DG9Ni42fbj-1" value="SRM系统" style="rounded=0;whiteSpace=wrap;html=1;" vertex="1" parent="1">
          <mxGeometry x="330" y="250" width="120" height="60" as="geometry" />
        </mxCell>
        <mxCell id="XGPAb-1Tz1DG9Ni42fbj-2" value="类型：&lt;br&gt;原材料&lt;br&gt;成品库&lt;br&gt;" style="rounded=0;whiteSpace=wrap;html=1;" vertex="1" parent="1">
          <mxGeometry x="580" y="580" width="120" height="60" as="geometry" />
        </mxCell>
        <mxCell id="XGPAb-1Tz1DG9Ni42fbj-3" value="自提&lt;br&gt;TP单&lt;br&gt;- web页面操作&lt;br&gt;小程序操作" style="rounded=0;whiteSpace=wrap;html=1;" vertex="1" parent="1">
          <mxGeometry x="330" y="340" width="120" height="60" as="geometry" />
        </mxCell>
        <mxCell id="XGPAb-1Tz1DG9Ni42fbj-4" value="司机" style="shape=umlActor;verticalLabelPosition=bottom;verticalAlign=top;html=1;outlineConnect=0;" vertex="1" parent="1">
          <mxGeometry x="220" y="150" width="30" height="60" as="geometry" />
        </mxCell>
        <mxCell id="XGPAb-1Tz1DG9Ni42fbj-5" value="门卫" style="shape=umlActor;verticalLabelPosition=bottom;verticalAlign=top;html=1;outlineConnect=0;" vertex="1" parent="1">
          <mxGeometry x="220" y="280" width="30" height="60" as="geometry" />
        </mxCell>
        <mxCell id="XGPAb-1Tz1DG9Ni42fbj-6" value="仓管" style="shape=umlActor;verticalLabelPosition=bottom;verticalAlign=top;html=1;outlineConnect=0;" vertex="1" parent="1">
          <mxGeometry x="220" y="450" width="30" height="60" as="geometry" />
        </mxCell>
        <mxCell id="XGPAb-1Tz1DG9Ni42fbj-7" value="平台管理员" style="shape=umlActor;verticalLabelPosition=bottom;verticalAlign=top;html=1;outlineConnect=0;" vertex="1" parent="1">
          <mxGeometry x="220" y="550" width="30" height="60" as="geometry" />
        </mxCell>
        <mxCell id="XGPAb-1Tz1DG9Ni42fbj-8" value="小程序&lt;br&gt;- 企业端&lt;br&gt;- 司机端" style="shape=card;whiteSpace=wrap;html=1;" vertex="1" parent="1">
          <mxGeometry x="760" y="190" width="80" height="100" as="geometry" />
        </mxCell>
        <mxCell id="XGPAb-1Tz1DG9Ni42fbj-9" value="web" style="shape=card;whiteSpace=wrap;html=1;" vertex="1" parent="1">
          <mxGeometry x="770" y="350" width="80" height="100" as="geometry" />
        </mxCell>
        <mxCell id="XGPAb-1Tz1DG9Ni42fbj-10" value="定时任务" style="ellipse;whiteSpace=wrap;html=1;aspect=fixed;" vertex="1" parent="1">
          <mxGeometry x="340" y="490" width="80" height="80" as="geometry" />
        </mxCell>
        <mxCell id="XGPAb-1Tz1DG9Ni42fbj-11" value="产生&lt;br&gt;预约单" style="shape=parallelogram;perimeter=parallelogramPerimeter;whiteSpace=wrap;html=1;fixedSize=1;" vertex="1" parent="1">
          <mxGeometry x="550" y="270" width="120" height="60" as="geometry" />
        </mxCell>
        <mxCell id="XGPAb-1Tz1DG9Ni42fbj-16" value="调度" style="rounded=0;whiteSpace=wrap;html=1;" vertex="1" parent="1">
          <mxGeometry x="390" y="110" width="120" height="60" as="geometry" />
        </mxCell>
        <mxCell id="XGPAb-1Tz1DG9Ni42fbj-17" value="任务" style="rounded=0;whiteSpace=wrap;html=1;" vertex="1" parent="1">
          <mxGeometry x="580" y="110" width="120" height="60" as="geometry" />
        </mxCell>
        <mxCell id="XGPAb-1Tz1DG9Ni42fbj-18" value="预约单" style="rounded=0;whiteSpace=wrap;html=1;" vertex="1" parent="1">
          <mxGeometry x="750" y="110" width="120" height="60" as="geometry" />
        </mxCell>
      </root>
    </mxGraphModel>
  </diagram>
</mxfile>
